<svg width="138" height="178" viewBox="0 0 138 178" fill="none" xmlns="http://www.w3.org/2000/svg">
<path fill-rule="evenodd" clip-rule="evenodd" d="M128.05 0H9.85C7.23762 0 4.73223 1.03776 2.885 2.885C1.03776 4.73223 0 7.23762 0 9.85V167.45C0 170.062 1.03776 172.568 2.885 174.415C4.73223 176.262 7.23762 177.3 9.85 177.3H128.05C130.662 177.3 133.168 176.262 135.015 174.415C136.862 172.568 137.9 170.062 137.9 167.45V9.85C137.9 7.23762 136.862 4.73223 135.015 2.885C133.168 1.03776 130.662 0 128.05 0ZM96.4807 103.612C94.6585 107.375 92.8067 107.572 93.6144 103.612C95.6927 93.378 94.2842 71.3928 78.8 68.95V115.738C78.8 125.322 74.3872 133.665 62.6558 137.437C51.2692 141.072 38.5332 137.279 35.5486 129.104C32.5641 120.928 39.2621 110.98 50.5009 106.882C56.7754 104.597 64.0447 104.006 68.95 105.888V39.4H78.8C78.8 62.5968 118.84 57.5142 96.4807 103.612Z" fill="black"/>
</svg>
